# xmcd CD database file
#
# Track frame offsets:
#	150
#	24890
#	50258
#	72984
#	101246
#	123537
#	148835
#	166410
#	186691
#	211908
#
# Disc length: 3229 seconds
#
# Revision: 0
# Processed by: cddbd v1.4PL0 Copyright (c) Steve Scherf et al.
# Submitted via: CDex 1.50
#
DISCID=970c9b0a
DTITLE=Osvaldo Chacón - Salsa Timba
DYEAR=2002
DGENRE=Salsa
TTITLE0=Bimbón
TTITLE1=Voy a Entrar
TTITLE2=Ando Buscando
TTITLE3=Si Me Dejas
TTITLE4=Socala
TTITLE5=Heriero
TTITLE6=Forever Cha-cha
TTITLE7=Conmigo O Con Él
TTITLE8=Cáracter Deportivo
TTITLE9=Todo Llega
EXTD=YEAR: 2002
EXTT0=
EXTT1=
EXTT2=
EXTT3=
EXTT4=
EXTT5=
EXTT6=
EXTT7=
EXTT8=
EXTT9=
PLAYORDER=
